solid NS Panel_mount_base_v016.stl
facet normal 0.000000e+000 1.000000e+000 0.000000e+000
    outer loop
        vertex 3.762000e+001 2.511901e+001 0.000000e+000
        vertex 4.130000e+001 2.511901e+001 6.544000e+000
        vertex 4.130000e+001 2.511901e+001 0.000000e+000
    endloop
endfacet
facet normal 0.000000e+000 1.000000e+000 0.000000e+000
    outer loop
        vertex 3.762000e+001 2.511901e+001 0.000000e+000
        vertex 3.762000e+001 2.511901e+001 6.544000e+000
        vertex 4.130000e+001 2.511901e+001 6.544000e+000
    endloop
endfacet
facet normal 0.000000e+000 -8.662050e-001 4.996889e-001
    outer loop
        vertex 3.762000e+001 -2.258286e+001 6.544000e+000
        vertex 4.130000e+001 1.362551e+001 6.931079e+001
        vertex 3.762000e+001 1.362551e+001 6.931079e+001
    endloop
endfacet
facet normal 0.000000e+000 -8.662050e-001 4.996889e-001
    outer loop
        vertex 3.762000e+001 -2.258286e+001 6.544000e+000
        vertex 4.130000e+001 -2.258286e+001 6.544000e+000
        vertex 4.130000e+001 1.362551e+001 6.931079e+001
    endloop
endfacet
facet normal 0.000000e+000 0.000000e+000 -1.000000e+000
    outer loop
        vertex 4.130000e+001 -2.103630e+001 0.000000e+000
        vertex 3.762000e+001 2.511901e+001 0.000000e+000
        vertex 4.130000e+001 2.511901e+001 0.000000e+000
    endloop
endfacet
facet normal 0.000000e+000 0.000000e+000 -1.000000e+000
    outer loop
        vertex 3.762000e+001 -2.103630e+001 0.000000e+000
        vertex 3.762000e+001 2.511901e+001 0.000000e+000
        vertex 4.130000e+001 -2.103630e+001 0.000000e+000
    endloop
endfacet
facet normal 1.000000e+000 0.000000e+000 0.000000e+000
    outer loop
        vertex 4.130000e+001 -2.103630e+001 0.000000e+000
        vertex 4.130000e+001 2.511901e+001 0.000000e+000
        vertex 4.130000e+001 2.511901e+001 6.544000e+000
    endloop
endfacet
facet normal 1.000000e+000 -0.000000e+000 0.000000e+000
    outer loop
        vertex 4.130000e+001 -2.258286e+001 6.544000e+000
        vertex 4.130000e+001 -2.103630e+001 0.000000e+000
        vertex 4.130000e+001 2.511901e+001 6.544000e+000
    endloop
endfacet
facet normal 1.000000e+000 -0.000000e+000 0.000000e+000
    outer loop
        vertex 4.130000e+001 -2.258323e+001 1.546994e+000
        vertex 4.130000e+001 -2.103630e+001 0.000000e+000
        vertex 4.130000e+001 -2.258286e+001 6.544000e+000
    endloop
endfacet
facet normal 1.000000e+000 0.000000e+000 0.000000e+000
    outer loop
        vertex 4.130000e+001 -2.258323e+001 1.546994e+000
        vertex 4.130000e+001 -2.170487e+001 2.769404e-001
        vertex 4.130000e+001 -2.103630e+001 0.000000e+000
    endloop
endfacet
facet normal 1.000000e+000 0.000000e+000 0.000000e+000
    outer loop
        vertex 4.130000e+001 -2.258323e+001 1.546994e+000
        vertex 4.130000e+001 -2.230632e+001 8.784095e-001
        vertex 4.130000e+001 -2.170487e+001 2.769404e-001
    endloop
endfacet
facet normal 0.000000e+000 -1.000000e+000 7.443116e-005
    outer loop
        vertex 3.762000e+001 -2.258323e+001 1.546994e+000
        vertex 4.130000e+001 -2.258323e+001 1.546994e+000
        vertex 3.762000e+001 -2.258286e+001 6.544000e+000
    endloop
endfacet
facet normal 0.000000e+000 -1.000000e+000 7.443116e-005
    outer loop
        vertex 4.130000e+001 -2.258323e+001 1.546994e+000
        vertex 4.130000e+001 -2.258286e+001 6.544000e+000
        vertex 3.762000e+001 -2.258286e+001 6.544000e+000
    endloop
endfacet
facet normal 0.000000e+000 -7.071203e-001 -7.070933e-001
    outer loop
        vertex 3.762000e+001 -2.230632e+001 8.784095e-001
        vertex 4.130000e+001 -2.170487e+001 2.769404e-001
        vertex 4.130000e+001 -2.230632e+001 8.784095e-001
    endloop
endfacet
facet normal 0.000000e+000 -7.071203e-001 -7.070933e-001
    outer loop
        vertex 3.762000e+001 -2.230632e+001 8.784095e-001
        vertex 3.762000e+001 -2.170487e+001 2.769404e-001
        vertex 4.130000e+001 -2.170487e+001 2.769404e-001
    endloop
endfacet
facet normal 0.000000e+000 -3.826950e-001 -9.238747e-001
    outer loop
        vertex 3.762000e+001 -2.170487e+001 2.769404e-001
        vertex 4.130000e+001 -2.103630e+001 0.000000e+000
        vertex 4.130000e+001 -2.170487e+001 2.769404e-001
    endloop
endfacet
facet normal 0.000000e+000 -3.826950e-001 -9.238747e-001
    outer loop
        vertex 3.762000e+001 -2.170487e+001 2.769404e-001
        vertex 3.762000e+001 -2.103630e+001 0.000000e+000
        vertex 4.130000e+001 -2.103630e+001 0.000000e+000
    endloop
endfacet
facet normal 0.000000e+000 -9.238922e-001 -3.826528e-001
    outer loop
        vertex 3.762000e+001 -2.258323e+001 1.546994e+000
        vertex 3.762000e+001 -2.230632e+001 8.784095e-001
        vertex 4.130000e+001 -2.230632e+001 8.784095e-001
    endloop
endfacet
facet normal 0.000000e+000 -9.238922e-001 -3.826528e-001
    outer loop
        vertex 3.762000e+001 -2.258323e+001 1.546994e+000
        vertex 4.130000e+001 -2.230632e+001 8.784095e-001
        vertex 4.130000e+001 -2.258323e+001 1.546994e+000
    endloop
endfacet
facet normal 0.000000e+000 4.935175e-001 8.697359e-001
    outer loop
        vertex 4.130000e+001 1.362551e+001 6.931079e+001
        vertex 4.130000e+001 1.423651e+001 6.896409e+001
        vertex 3.762000e+001 1.423651e+001 6.896409e+001
    endloop
endfacet
facet normal -0.000000e+000 4.935175e-001 8.697359e-001
    outer loop
        vertex 3.762000e+001 1.362551e+001 6.931079e+001
        vertex 4.130000e+001 1.362551e+001 6.931079e+001
        vertex 3.762000e+001 1.423651e+001 6.896409e+001
    endloop
endfacet
facet normal -0.000000e+000 9.851402e-001 1.717522e-001
    outer loop
        vertex 3.762000e+001 1.423651e+001 6.896409e+001
        vertex 4.130000e+001 1.423651e+001 6.896409e+001
        vertex 3.762000e+001 2.511901e+001 6.544000e+000
    endloop
endfacet
facet normal 0.000000e+000 9.851402e-001 1.717522e-001
    outer loop
        vertex 4.130000e+001 1.423651e+001 6.896409e+001
        vertex 4.130000e+001 2.511901e+001 6.544000e+000
        vertex 3.762000e+001 2.511901e+001 6.544000e+000
    endloop
endfacet
facet normal 1.000000e+000 0.000000e+000 0.000000e+000
    outer loop
        vertex 4.130000e+001 -2.258286e+001 6.544000e+000
        vertex 4.130000e+001 2.511901e+001 6.544000e+000
        vertex 4.130000e+001 1.423651e+001 6.896409e+001
    endloop
endfacet
facet normal 1.000000e+000 0.000000e+000 0.000000e+000
    outer loop
        vertex 4.130000e+001 -2.258286e+001 6.544000e+000
        vertex 4.130000e+001 1.423651e+001 6.896409e+001
        vertex 4.130000e+001 1.362551e+001 6.931079e+001
    endloop
endfacet
facet normal -1.000000e+000 0.000000e+000 0.000000e+000
    outer loop
        vertex 3.762000e+001 -2.258286e+001 6.544000e+000
        vertex 3.762000e+001 1.362551e+001 6.931079e+001
        vertex 3.762000e+001 1.423651e+001 6.896409e+001
    endloop
endfacet
facet normal -1.000000e+000 0.000000e+000 0.000000e+000
    outer loop
        vertex 3.762000e+001 -2.258286e+001 6.544000e+000
        vertex 3.762000e+001 1.423651e+001 6.896409e+001
        vertex 3.762000e+001 2.511901e+001 6.544000e+000
    endloop
endfacet
facet normal -1.000000e+000 0.000000e+000 0.000000e+000
    outer loop
        vertex 3.762000e+001 -2.258286e+001 6.544000e+000
        vertex 3.762000e+001 2.511901e+001 6.544000e+000
        vertex 3.762000e+001 2.188901e+001 6.542000e+000
    endloop
endfacet
facet normal 1.000000e+000 -0.000000e+000 0.000000e+000
    outer loop
        vertex 3.762000e+001 -2.258286e+001 6.544000e+000
        vertex 3.762000e+001 2.188901e+001 6.542000e+000
        vertex 3.762000e+001 -1.999000e+001 6.544000e+000
    endloop
endfacet
facet normal -1.000000e+000 0.000000e+000 0.000000e+000
    outer loop
        vertex 3.762000e+001 -1.999000e+001 2.100000e+000
        vertex 3.762000e+001 -1.999000e+001 6.544000e+000
        vertex 3.762000e+001 2.188901e+001 6.542000e+000
    endloop
endfacet
facet normal -1.000000e+000 0.000000e+000 0.000000e+000
    outer loop
        vertex 3.762000e+001 -1.999000e+001 2.100000e+000
        vertex 3.762000e+001 2.188901e+001 6.542000e+000
        vertex 3.762000e+001 2.188901e+001 2.100000e+000
    endloop
endfacet
facet normal 1.000000e+000 -0.000000e+000 0.000000e+000
    outer loop
        vertex 3.762000e+001 1.142101e+001 6.517758e+001
        vertex 3.762000e+001 2.511901e+001 6.544000e+000
        vertex 3.762000e+001 1.423651e+001 6.896409e+001
    endloop
endfacet
facet normal 1.000000e+000 0.000000e+000 0.000000e+000
    outer loop
        vertex 3.762000e+001 1.142101e+001 6.517758e+001
        vertex 3.762000e+001 2.188901e+001 6.542000e+000
        vertex 3.762000e+001 2.511901e+001 6.544000e+000
    endloop
endfacet
facet normal -1.000000e+000 0.000000e+000 0.000000e+000
    outer loop
        vertex 3.461500e+001 1.142101e+001 6.517758e+001
        vertex 3.461500e+001 1.298651e+001 6.814194e+001
        vertex 3.461500e+001 1.423651e+001 6.896409e+001
    endloop
endfacet
facet normal -1.000000e+000 0.000000e+000 0.000000e+000
    outer loop
        vertex 3.461500e+001 1.298651e+001 6.814194e+001
        vertex 3.461500e+001 1.362551e+001 6.931079e+001
        vertex 3.461500e+001 1.423651e+001 6.896409e+001
    endloop
endfacet
facet normal 1.000000e+000 0.000000e+000 0.000000e+000
    outer loop
        vertex 3.762000e+001 1.298651e+001 6.814194e+001
        vertex 3.762000e+001 1.423651e+001 6.896409e+001
        vertex 3.762000e+001 1.362551e+001 6.931079e+001
    endloop
endfacet
facet normal 1.000000e+000 0.000000e+000 0.000000e+000
    outer loop
        vertex 3.762000e+001 1.142101e+001 6.517758e+001
        vertex 3.762000e+001 1.423651e+001 6.896409e+001
        vertex 3.762000e+001 1.298651e+001 6.814194e+001
    endloop
endfacet
facet normal 1.000000e+000 0.000000e+000 0.000000e+000
    outer loop
        vertex 3.762000e+001 1.076701e+001 6.803158e+001
        vertex 3.762000e+001 1.298651e+001 6.814194e+001
        vertex 3.762000e+001 1.134251e+001 6.906994e+001
    endloop
endfacet
facet normal 1.000000e+000 -0.000000e+000 0.000000e+000
    outer loop
        vertex 3.762000e+001 1.076701e+001 6.803158e+001
        vertex 3.762000e+001 1.142101e+001 6.517758e+001
        vertex 3.762000e+001 1.298651e+001 6.814194e+001
    endloop
endfacet
facet normal -1.000000e+000 0.000000e+000 0.000000e+000
    outer loop
        vertex 3.461500e+001 1.142101e+001 6.517758e+001
        vertex 3.461500e+001 2.511901e+001 6.542000e+000
        vertex 3.461500e+001 2.188901e+001 6.542000e+000
    endloop
endfacet
facet normal -1.000000e+000 0.000000e+000 0.000000e+000
    outer loop
        vertex 3.461500e+001 1.142101e+001 6.517758e+001
        vertex 3.461500e+001 1.423651e+001 6.896409e+001
        vertex 3.461500e+001 2.511901e+001 6.542000e+000
    endloop
endfacet
facet normal -1.000000e+000 0.000000e+000 0.000000e+000
    outer loop
        vertex 3.461500e+001 1.076701e+001 6.803158e+001
        vertex 3.461500e+001 1.298651e+001 6.814194e+001
        vertex 3.461500e+001 1.142101e+001 6.517758e+001
    endloop
endfacet
facet normal -1.000000e+000 0.000000e+000 0.000000e+000
    outer loop
        vertex 3.461500e+001 1.076701e+001 6.803158e+001
        vertex 3.461500e+001 1.134251e+001 6.906994e+001
        vertex 3.461500e+001 1.298651e+001 6.814194e+001
    endloop
endfacet
facet normal -1.143263e-004 9.851411e-001 1.717469e-001
    outer loop
        vertex 3.461500e+001 1.423651e+001 6.896409e+001
        vertex 3.762000e+001 2.511901e+001 6.544000e+000
        vertex 3.461500e+001 2.511901e+001 6.542000e+000
    endloop
endfacet
facet normal -0.000000e+000 9.851402e-001 1.717522e-001
    outer loop
        vertex 3.461500e+001 1.423651e+001 6.896409e+001
        vertex 3.762000e+001 1.423651e+001 6.896409e+001
        vertex 3.762000e+001 2.511901e+001 6.544000e+000
    endloop
endfacet
facet normal 0.000000e+000 -9.844353e-001 -1.757477e-001
    outer loop
        vertex 3.461500e+001 1.142101e+001 6.517758e+001
        vertex 3.762000e+001 2.188901e+001 6.542000e+000
        vertex 3.762000e+001 1.142101e+001 6.517758e+001
    endloop
endfacet
facet normal 0.000000e+000 -9.844353e-001 -1.757477e-001
    outer loop
        vertex 3.461500e+001 1.142101e+001 6.517758e+001
        vertex 3.461500e+001 2.188901e+001 6.542000e+000
        vertex 3.762000e+001 2.188901e+001 6.542000e+000
    endloop
endfacet
facet normal 0.000000e+000 4.935175e-001 8.697359e-001
    outer loop
        vertex 3.461500e+001 1.362551e+001 6.931079e+001
        vertex 3.762000e+001 1.423651e+001 6.896409e+001
        vertex 3.461500e+001 1.423651e+001 6.896409e+001
    endloop
endfacet
facet normal -0.000000e+000 4.935175e-001 8.697359e-001
    outer loop
        vertex 3.461500e+001 1.362551e+001 6.931079e+001
        vertex 3.762000e+001 1.362551e+001 6.931079e+001
        vertex 3.762000e+001 1.423651e+001 6.896409e+001
    endloop
endfacet
facet normal 0.000000e+000 -8.746455e-001 4.847631e-001
    outer loop
        vertex 3.762000e+001 1.076701e+001 6.803158e+001
        vertex 3.762000e+001 1.134251e+001 6.906994e+001
        vertex 3.461500e+001 1.134251e+001 6.906994e+001
    endloop
endfacet
facet normal 0.000000e+000 -8.746455e-001 4.847631e-001
    outer loop
        vertex 3.461500e+001 1.076701e+001 6.803158e+001
        vertex 3.762000e+001 1.076701e+001 6.803158e+001
        vertex 3.461500e+001 1.134251e+001 6.906994e+001
    endloop
endfacet
facet normal 0.000000e+000 -8.774403e-001 4.796859e-001
    outer loop
        vertex 3.461500e+001 1.298651e+001 6.814194e+001
        vertex 3.762000e+001 1.298651e+001 6.814194e+001
        vertex 3.461500e+001 1.362551e+001 6.931079e+001
    endloop
endfacet
facet normal 0.000000e+000 -8.774403e-001 4.796859e-001
    outer loop
        vertex 3.762000e+001 1.298651e+001 6.814194e+001
        vertex 3.762000e+001 1.362551e+001 6.931079e+001
        vertex 3.461500e+001 1.362551e+001 6.931079e+001
    endloop
endfacet
facet normal 0.000000e+000 -9.747354e-001 -2.233627e-001
    outer loop
        vertex 3.461500e+001 1.076701e+001 6.803158e+001
        vertex 3.762000e+001 1.142101e+001 6.517758e+001
        vertex 3.762000e+001 1.076701e+001 6.803158e+001
    endloop
endfacet
facet normal 0.000000e+000 -9.747354e-001 -2.233627e-001
    outer loop
        vertex 3.461500e+001 1.076701e+001 6.803158e+001
        vertex 3.461500e+001 1.142101e+001 6.517758e+001
        vertex 3.762000e+001 1.142101e+001 6.517758e+001
    endloop
endfacet
facet normal 0.000000e+000 4.915688e-001 8.708388e-001
    outer loop
        vertex 3.461500e+001 1.134251e+001 6.906994e+001
        vertex 3.762000e+001 1.298651e+001 6.814194e+001
        vertex 3.461500e+001 1.298651e+001 6.814194e+001
    endloop
endfacet
facet normal -0.000000e+000 4.915688e-001 8.708388e-001
    outer loop
        vertex 3.461500e+001 1.134251e+001 6.906994e+001
        vertex 3.762000e+001 1.134251e+001 6.906994e+001
        vertex 3.762000e+001 1.298651e+001 6.814194e+001
    endloop
endfacet
facet normal 0.000000e+000 0.000000e+000 1.000000e+000
    outer loop
        vertex 0.000000e+000 2.188901e+001 6.542000e+000
        vertex 3.461500e+001 2.511901e+001 6.542000e+000
        vertex 0.000000e+000 2.511901e+001 6.542000e+000
    endloop
endfacet
facet normal 0.000000e+000 0.000000e+000 1.000000e+000
    outer loop
        vertex 0.000000e+000 2.188901e+001 6.542000e+000
        vertex 3.461500e+001 2.188901e+001 6.542000e+000
        vertex 3.461500e+001 2.511901e+001 6.542000e+000
    endloop
endfacet
facet normal 0.000000e+000 -9.238922e-001 -3.826528e-001
    outer loop
        vertex 3.461500e+001 -2.258323e+001 1.546994e+000
        vertex 3.762000e+001 -2.230632e+001 8.784095e-001
        vertex 3.762000e+001 -2.258323e+001 1.546994e+000
    endloop
endfacet
facet normal 0.000000e+000 -9.238922e-001 -3.826528e-001
    outer loop
        vertex 3.461500e+001 -2.258323e+001 1.546994e+000
        vertex 3.461500e+001 -2.230632e+001 8.784095e-001
        vertex 3.762000e+001 -2.230632e+001 8.784095e-001
    endloop
endfacet
facet normal 0.000000e+000 -9.238904e-001 -3.826573e-001
    outer loop
        vertex 0.000000e+000 -2.258323e+001 1.546994e+000
        vertex 0.000000e+000 -2.230631e+001 8.784095e-001
        vertex 3.461500e+001 -2.258323e+001 1.546994e+000
    endloop
endfacet
facet normal -1.018162e-007 -9.238922e-001 -3.826528e-001
    outer loop
        vertex 3.461500e+001 -2.258323e+001 1.546994e+000
        vertex 0.000000e+000 -2.230631e+001 8.784095e-001
        vertex 3.461500e+001 -2.230632e+001 8.784095e-001
    endloop
endfacet
facet normal 0.000000e+000 -1.000000e+000 7.443116e-005
    outer loop
        vertex 3.762000e+001 -2.258323e+001 1.546994e+000
        vertex 3.762000e+001 -2.258286e+001 6.544000e+000
        vertex 3.461500e+001 -2.258286e+001 6.544000e+000
    endloop
endfacet
facet normal 0.000000e+000 -1.000000e+000 7.443116e-005
    outer loop
        vertex 3.461500e+001 -2.258323e+001 1.546994e+000
        vertex 3.762000e+001 -2.258323e+001 1.546994e+000
        vertex 3.461500e+001 -2.258286e+001 6.544000e+000
    endloop
endfacet
facet normal 0.000000e+000 -1.000000e+000 7.443116e-005
    outer loop
        vertex 0.000000e+000 -2.258323e+001 1.546994e+000
        vertex 3.461500e+001 -2.258286e+001 6.544000e+000
        vertex 0.000000e+000 -2.258286e+001 6.544000e+000
    endloop
endfacet
facet normal 0.000000e+000 -1.000000e+000 7.443116e-005
    outer loop
        vertex 0.000000e+000 -2.258323e+001 1.546994e+000
        vertex 3.461500e+001 -2.258323e+001 1.546994e+000
        vertex 3.461500e+001 -2.258286e+001 6.544000e+000
    endloop
endfacet
facet normal 0.000000e+000 -7.071203e-001 -7.070933e-001
    outer loop
        vertex 3.461500e+001 -2.230632e+001 8.784095e-001
        vertex 3.762000e+001 -2.170487e+001 2.769404e-001
        vertex 3.762000e+001 -2.230632e+001 8.784095e-001
    endloop
endfacet
facet normal 7.012650e-009 -7.071203e-001 -7.070933e-001
    outer loop
        vertex 3.461500e+001 -2.230632e+001 8.784095e-001
        vertex 3.461500e+001 -2.170487e+001 2.769404e-001
        vertex 3.762000e+001 -2.170487e+001 2.769404e-001
    endloop
endfacet
facet normal -6.087829e-010 -7.071203e-001 -7.070933e-001
    outer loop
        vertex 3.461500e+001 -2.230632e+001 8.784095e-001
        vertex 0.000000e+000 -2.170487e+001 2.769404e-001
        vertex 3.461500e+001 -2.170487e+001 2.769404e-001
    endloop
endfacet
facet normal -7.792744e-008 -7.071225e-001 -7.070910e-001
    outer loop
        vertex 3.461500e+001 -2.230632e+001 8.784095e-001
        vertex 0.000000e+000 -2.230631e+001 8.784095e-001
        vertex 0.000000e+000 -2.170487e+001 2.769404e-001
    endloop
endfacet
facet normal 9.162597e-009 -3.826950e-001 -9.238747e-001
    outer loop
        vertex 3.461500e+001 -2.170487e+001 2.769404e-001
        vertex 3.762000e+001 -2.103630e+001 0.000000e+000
        vertex 3.762000e+001 -2.170487e+001 2.769404e-001
    endloop
endfacet
facet normal 8.292150e-009 -3.826950e-001 -9.238747e-001
    outer loop
        vertex 3.461500e+001 -2.170487e+001 2.769404e-001
        vertex 3.461500e+001 -2.103630e+001 -2.697110e-008
        vertex 3.762000e+001 -2.103630e+001 0.000000e+000
    endloop
endfacet
facet normal -7.954243e-010 -3.826950e-001 -9.238747e-001
    outer loop
        vertex 3.461500e+001 -2.170487e+001 2.769404e-001
        vertex 0.000000e+000 -2.170487e+001 2.769404e-001
        vertex 0.000000e+000 -2.103630e+001 0.000000e+000
    endloop
endfacet
facet normal -7.198590e-010 -3.826950e-001 -9.238747e-001
    outer loop
        vertex 3.461500e+001 -2.170487e+001 2.769404e-001
        vertex 0.000000e+000 -2.103630e+001 0.000000e+000
        vertex 3.461500e+001 -2.103630e+001 -2.697110e-008
    endloop
endfacet
facet normal 0.000000e+000 1.000000e+000 -0.000000e+000
    outer loop
        vertex 3.762000e+001 -1.999000e+001 2.100000e+000
        vertex 3.461500e+001 -1.999000e+001 6.544000e+000
        vertex 3.762000e+001 -1.999000e+001 6.544000e+000
    endloop
endfacet
facet normal 0.000000e+000 1.000000e+000 0.000000e+000
    outer loop
        vertex 3.461500e+001 -1.999000e+001 2.100000e+000
        vertex 3.461500e+001 -1.999000e+001 6.544000e+000
        vertex 3.762000e+001 -1.999000e+001 2.100000e+000
    endloop
endfacet
facet normal 0.000000e+000 1.000000e+000 0.000000e+000
    outer loop
        vertex -5.142479e-007 -1.999000e+001 2.100000e+000
        vertex 3.461500e+001 -1.999000e+001 6.544000e+000
        vertex 3.461500e+001 -1.999000e+001 2.100000e+000
    endloop
endfacet
facet normal 0.000000e+000 1.000000e+000 0.000000e+000
    outer loop
        vertex -5.142479e-007 -1.999000e+001 2.100000e+000
        vertex -2.251653e-007 -1.999000e+001 6.544000e+000
        vertex 3.461500e+001 -1.999000e+001 6.544000e+000
    endloop
endfacet
facet normal 0.000000e+000 0.000000e+000 1.000000e+000
    outer loop
        vertex 3.461500e+001 -2.280786e+001 8.002000e+000
        vertex 3.762000e+001 -2.280786e+001 8.002000e+000
        vertex 3.762000e+001 -1.999000e+001 8.002000e+000
    endloop
endfacet
facet normal 0.000000e+000 0.000000e+000 1.000000e+000
    outer loop
        vertex 3.461500e+001 -2.280786e+001 8.002000e+000
        vertex 3.762000e+001 -1.999000e+001 8.002000e+000
        vertex 3.461500e+001 -1.999000e+001 8.002000e+000
    endloop
endfacet
facet normal 0.000000e+000 -0.000000e+000 1.000000e+000
    outer loop
        vertex 0.000000e+000 -2.258286e+001 6.544000e+000
        vertex 3.461500e+001 -1.999000e+001 6.544000e+000
        vertex -2.251653e-007 -1.999000e+001 6.544000e+000
    endloop
endfacet
facet normal 0.000000e+000 0.000000e+000 1.000000e+000
    outer loop
        vertex 0.000000e+000 -2.258286e+001 6.544000e+000
        vertex 3.461500e+001 -2.258286e+001 6.544000e+000
        vertex 3.461500e+001 -1.999000e+001 6.544000e+000
    endloop
endfacet
facet normal 0.000000e+000 1.000000e+000 -0.000000e+000
    outer loop
        vertex 3.762000e+001 2.511901e+001 0.000000e+000
        vertex 3.461500e+001 2.511901e+001 6.542000e+000
        vertex 3.762000e+001 2.511901e+001 6.544000e+000
    endloop
endfacet
facet normal 0.000000e+000 1.000000e+000 0.000000e+000
    outer loop
        vertex 3.461500e+001 2.511901e+001 -2.697110e-008
        vertex 3.461500e+001 2.511901e+001 6.542000e+000
        vertex 3.762000e+001 2.511901e+001 0.000000e+000
    endloop
endfacet
facet normal 0.000000e+000 1.000000e+000 0.000000e+000
    outer loop
        vertex 3.461500e+001 2.511901e+001 -2.697110e-008
        vertex 0.000000e+000 2.511901e+001 0.000000e+000
        vertex 0.000000e+000 2.511901e+001 6.542000e+000
    endloop
endfacet
facet normal 0.000000e+000 1.000000e+000 -0.000000e+000
    outer loop
        vertex 3.461500e+001 2.511901e+001 -2.697110e-008
        vertex 0.000000e+000 2.511901e+001 6.542000e+000
        vertex 3.461500e+001 2.511901e+001 6.542000e+000
    endloop
endfacet
facet normal 0.000000e+000 -1.000000e+000 0.000000e+000
    outer loop
        vertex 3.762000e+001 2.188901e+001 2.100000e+000
        vertex 3.762000e+001 2.188901e+001 6.542000e+000
        vertex 3.461500e+001 2.188901e+001 6.542000e+000
    endloop
endfacet
facet normal 0.000000e+000 -1.000000e+000 0.000000e+000
    outer loop
        vertex 3.461500e+001 2.188901e+001 2.100000e+000
        vertex 3.762000e+001 2.188901e+001 2.100000e+000
        vertex 3.461500e+001 2.188901e+001 6.542000e+000
    endloop
endfacet
facet normal 0.000000e+000 -1.000000e+000 0.000000e+000
    outer loop
        vertex -2.890825e-007 2.188901e+001 2.100000e+000
        vertex 3.461500e+001 2.188901e+001 2.100000e+000
        vertex 0.000000e+000 2.188901e+001 6.542000e+000
    endloop
endfacet
facet normal 0.000000e+000 -1.000000e+000 0.000000e+000
    outer loop
        vertex 3.461500e+001 2.188901e+001 2.100000e+000
        vertex 3.461500e+001 2.188901e+001 6.542000e+000
        vertex 0.000000e+000 2.188901e+001 6.542000e+000
    endloop
endfacet
facet normal 8.975405e-009 0.000000e+000 -1.000000e+000
    outer loop
        vertex 3.461500e+001 -2.103630e+001 -2.697110e-008
        vertex 3.762000e+001 2.511901e+001 0.000000e+000
        vertex 3.762000e+001 -2.103630e+001 0.000000e+000
    endloop
endfacet
facet normal 8.975405e-009 0.000000e+000 -1.000000e+000
    outer loop
        vertex 3.461500e+001 -2.103630e+001 -2.697110e-008
        vertex 3.461500e+001 2.511901e+001 -2.697110e-008
        vertex 3.762000e+001 2.511901e+001 0.000000e+000
    endloop
endfacet
facet normal -7.791738e-010 0.000000e+000 -1.000000e+000
    outer loop
        vertex 3.461500e+001 -2.103630e+001 -2.697110e-008
        vertex 0.000000e+000 -2.103630e+001 0.000000e+000
        vertex 0.000000e+000 2.511901e+001 0.000000e+000
    endloop
endfacet
facet normal -7.791738e-010 0.000000e+000 -1.000000e+000
    outer loop
        vertex 3.461500e+001 -2.103630e+001 -2.697110e-008
        vertex 0.000000e+000 2.511901e+001 0.000000e+000
        vertex 3.461500e+001 2.511901e+001 -2.697110e-008
    endloop
endfacet
facet normal 0.000000e+000 0.000000e+000 1.000000e+000
    outer loop
        vertex 3.461500e+001 -1.999000e+001 2.100000e+000
        vertex 3.762000e+001 -1.999000e+001 2.100000e+000
        vertex 3.762000e+001 2.188901e+001 2.100000e+000
    endloop
endfacet
facet normal 0.000000e+000 0.000000e+000 1.000000e+000
    outer loop
        vertex 3.461500e+001 -1.999000e+001 2.100000e+000
        vertex 3.762000e+001 2.188901e+001 2.100000e+000
        vertex 3.461500e+001 2.188901e+001 2.100000e+000
    endloop
endfacet
facet normal 0.000000e+000 0.000000e+000 1.000000e+000
    outer loop
        vertex -5.142479e-007 -1.999000e+001 2.100000e+000
        vertex 3.461500e+001 -1.999000e+001 2.100000e+000
        vertex 3.461500e+001 2.188901e+001 2.100000e+000
    endloop
endfacet
facet normal 0.000000e+000 0.000000e+000 1.000000e+000
    outer loop
        vertex -5.142479e-007 -1.999000e+001 2.100000e+000
        vertex 3.461500e+001 2.188901e+001 2.100000e+000
        vertex -2.890825e-007 2.188901e+001 2.100000e+000
    endloop
endfacet
facet normal 0.000000e+000 -8.320504e-001 5.547000e-001
    outer loop
        vertex 3.461500e+001 -2.344786e+001 7.042000e+000
        vertex 3.762000e+001 -2.280786e+001 8.002000e+000
        vertex 3.461500e+001 -2.280786e+001 8.002000e+000
    endloop
endfacet
facet normal 0.000000e+000 -8.320504e-001 5.547000e-001
    outer loop
        vertex 3.461500e+001 -2.344786e+001 7.042000e+000
        vertex 3.762000e+001 -2.344786e+001 7.042000e+000
        vertex 3.762000e+001 -2.280786e+001 8.002000e+000
    endloop
endfacet
facet normal -1.000000e+000 0.000000e+000 0.000000e+000
    outer loop
        vertex 3.461500e+001 -2.280786e+001 8.002000e+000
        vertex 3.461500e+001 -1.999000e+001 8.002000e+000
        vertex 3.461500e+001 -2.258286e+001 6.544000e+000
    endloop
endfacet
facet normal -1.000000e+000 0.000000e+000 0.000000e+000
    outer loop
        vertex 3.461500e+001 -2.258286e+001 6.544000e+000
        vertex 3.461500e+001 -1.999000e+001 8.002000e+000
        vertex 3.461500e+001 -1.999000e+001 6.544000e+000
    endloop
endfacet
facet normal 0.000000e+000 1.000000e+000 0.000000e+000
    outer loop
        vertex 3.461500e+001 -1.999000e+001 6.544000e+000
        vertex 3.461500e+001 -1.999000e+001 8.002000e+000
        vertex 3.762000e+001 -1.999000e+001 8.002000e+000
    endloop
endfacet
facet normal 0.000000e+000 1.000000e+000 0.000000e+000
    outer loop
        vertex 3.461500e+001 -1.999000e+001 6.544000e+000
        vertex 3.762000e+001 -1.999000e+001 8.002000e+000
        vertex 3.762000e+001 -1.999000e+001 6.544000e+000
    endloop
endfacet
facet normal 1.000000e+000 -0.000000e+000 0.000000e+000
    outer loop
        vertex 3.762000e+001 -2.280786e+001 8.002000e+000
        vertex 3.762000e+001 -2.258286e+001 6.544000e+000
        vertex 3.762000e+001 -1.999000e+001 8.002000e+000
    endloop
endfacet
facet normal 1.000000e+000 0.000000e+000 0.000000e+000
    outer loop
        vertex 3.762000e+001 -2.258286e+001 6.544000e+000
        vertex 3.762000e+001 -1.999000e+001 6.544000e+000
        vertex 3.762000e+001 -1.999000e+001 8.002000e+000
    endloop
endfacet
facet normal 1.000000e+000 -0.000000e+000 0.000000e+000
    outer loop
        vertex 3.762000e+001 -2.344786e+001 7.042000e+000
        vertex 3.762000e+001 -2.258286e+001 6.544000e+000
        vertex 3.762000e+001 -2.280786e+001 8.002000e+000
    endloop
endfacet
facet normal 0.000000e+000 -4.989418e-001 -8.666354e-001
    outer loop
        vertex 3.461500e+001 -2.344786e+001 7.042000e+000
        vertex 3.461500e+001 -2.258286e+001 6.544000e+000
        vertex 3.762000e+001 -2.344786e+001 7.042000e+000
    endloop
endfacet
facet normal 0.000000e+000 -4.989418e-001 -8.666354e-001
    outer loop
        vertex 3.762000e+001 -2.344786e+001 7.042000e+000
        vertex 3.461500e+001 -2.258286e+001 6.544000e+000
        vertex 3.762000e+001 -2.258286e+001 6.544000e+000
    endloop
endfacet
facet normal -1.000000e+000 0.000000e+000 0.000000e+000
    outer loop
        vertex 3.461500e+001 -2.344786e+001 7.042000e+000
        vertex 3.461500e+001 -2.280786e+001 8.002000e+000
        vertex 3.461500e+001 -2.258286e+001 6.544000e+000
    endloop
endfacet
facet normal 0.000000e+000 1.000000e+000 -0.000000e+000
    outer loop
        vertex -3.762000e+001 2.511901e+001 0.000000e+000
        vertex -4.130000e+001 2.511901e+001 0.000000e+000
        vertex -3.762000e+001 2.511901e+001 6.544000e+000
    endloop
endfacet
facet normal 0.000000e+000 1.000000e+000 0.000000e+000
    outer loop
        vertex -4.130000e+001 2.511901e+001 0.000000e+000
        vertex -4.130000e+001 2.511901e+001 6.544000e+000
        vertex -3.762000e+001 2.511901e+001 6.544000e+000
    endloop
endfacet
facet normal 0.000000e+000 -8.662050e-001 4.996889e-001
    outer loop
        vertex -3.762000e+001 -2.258286e+001 6.544000e+000
        vertex -3.762000e+001 1.362551e+001 6.931079e+001
        vertex -4.130000e+001 -2.258286e+001 6.544000e+000
    endloop
endfacet
facet normal 0.000000e+000 -8.662050e-001 4.996889e-001
    outer loop
        vertex -4.130000e+001 -2.258286e+001 6.544000e+000
        vertex -3.762000e+001 1.362551e+001 6.931079e+001
        vertex -4.130000e+001 1.362551e+001 6.931079e+001
    endloop
endfacet
facet normal 0.000000e+000 0.000000e+000 -1.000000e+000
    outer loop
        vertex -3.762000e+001 -2.103630e+001 0.000000e+000
        vertex -4.130000e+001 -2.103630e+001 0.000000e+000
        vertex -4.130000e+001 2.511901e+001 0.000000e+000
    endloop
endfacet
facet normal 0.000000e+000 0.000000e+000 -1.000000e+000
    outer loop
        vertex -3.762000e+001 -2.103630e+001 0.000000e+000
        vertex -4.130000e+001 2.511901e+001 0.000000e+000
        vertex -3.762000e+001 2.511901e+001 0.000000e+000
    endloop
endfacet
facet normal -1.000000e+000 0.000000e+000 0.000000e+000
    outer loop
        vertex -4.130000e+001 -2.103630e+001 0.000000e+000
        vertex -4.130000e+001 2.511901e+001 6.544000e+000
        vertex -4.130000e+001 2.511901e+001 0.000000e+000
    endloop
endfacet
facet normal -1.000000e+000 0.000000e+000 0.000000e+000
    outer loop
        vertex -4.130000e+001 -2.258286e+001 6.544000e+000
        vertex -4.130000e+001 2.511901e+001 6.544000e+000
        vertex -4.130000e+001 -2.103630e+001 0.000000e+000
    endloop
endfacet
facet normal -1.000000e+000 0.000000e+000 0.000000e+000
    outer loop
        vertex -4.130000e+001 -2.258323e+001 1.546994e+000
        vertex -4.130000e+001 -2.258286e+001 6.544000e+000
        vertex -4.130000e+001 -2.103630e+001 0.000000e+000
    endloop
endfacet
facet normal -1.000000e+000 0.000000e+000 0.000000e+000
    outer loop
        vertex -4.130000e+001 -2.258323e+001 1.546994e+000
        vertex -4.130000e+001 -2.103630e+001 0.000000e+000
        vertex -4.130000e+001 -2.170487e+001 2.769404e-001
    endloop
endfacet
facet normal -1.000000e+000 0.000000e+000 0.000000e+000
    outer loop
        vertex -4.130000e+001 -2.258323e+001 1.546994e+000
        vertex -4.130000e+001 -2.170487e+001 2.769404e-001
        vertex -4.130000e+001 -2.230632e+001 8.784095e-001
    endloop
endfacet
facet normal 0.000000e+000 -1.000000e+000 7.443116e-005
    outer loop
        vertex -3.762000e+001 -2.258323e+001 1.546994e+000
        vertex -4.130000e+001 -2.258286e+001 6.544000e+000
        vertex -4.130000e+001 -2.258323e+001 1.546994e+000
    endloop
endfacet
facet normal 0.000000e+000 -1.000000e+000 7.443116e-005
    outer loop
        vertex -3.762000e+001 -2.258323e+001 1.546994e+000
        vertex -3.762000e+001 -2.258286e+001 6.544000e+000
        vertex -4.130000e+001 -2.258286e+001 6.544000e+000
    endloop
endfacet
facet normal -0.000000e+000 -7.071203e-001 -7.070933e-001
    outer loop
        vertex -3.762000e+001 -2.230632e+001 8.784095e-001
        vertex -4.130000e+001 -2.230632e+001 8.784095e-001
        vertex -3.762000e+001 -2.170487e+001 2.769404e-001
    endloop
endfacet
facet normal 0.000000e+000 -7.071203e-001 -7.070933e-001
    outer loop
        vertex -4.130000e+001 -2.230632e+001 8.784095e-001
        vertex -4.130000e+001 -2.170487e+001 2.769404e-001
        vertex -3.762000e+001 -2.170487e+001 2.769404e-001
    endloop
endfacet
facet normal -0.000000e+000 -3.826950e-001 -9.238747e-001
    outer loop
        vertex -3.762000e+001 -2.170487e+001 2.769404e-001
        vertex -4.130000e+001 -2.170487e+001 2.769404e-001
        vertex -3.762000e+001 -2.103630e+001 0.000000e+000
    endloop
endfacet
facet normal 0.000000e+000 -3.826950e-001 -9.238747e-001
    outer loop
        vertex -4.130000e+001 -2.170487e+001 2.769404e-001
        vertex -4.130000e+001 -2.103630e+001 0.000000e+000
        vertex -3.762000e+001 -2.103630e+001 0.000000e+000
    endloop
endfacet
facet normal 0.000000e+000 -9.238922e-001 -3.826528e-001
    outer loop
        vertex -4.130000e+001 -2.258323e+001 1.546994e+000
        vertex -4.130000e+001 -2.230632e+001 8.784095e-001
        vertex -3.762000e+001 -2.230632e+001 8.784095e-001
    endloop
endfacet
facet normal -0.000000e+000 -9.238922e-001 -3.826528e-001
    outer loop
        vertex -3.762000e+001 -2.258323e+001 1.546994e+000
        vertex -4.130000e+001 -2.258323e+001 1.546994e+000
        vertex -3.762000e+001 -2.230632e+001 8.784095e-001
    endloop
endfacet
facet normal 0.000000e+000 4.935175e-001 8.697359e-001
    outer loop
        vertex -3.762000e+001 1.362551e+001 6.931079e+001
        vertex -3.762000e+001 1.423651e+001 6.896409e+001
        vertex -4.130000e+001 1.423651e+001 6.896409e+001
    endloop
endfacet
facet normal 0.000000e+000 4.935175e-001 8.697359e-001
    outer loop
        vertex -3.762000e+001 1.362551e+001 6.931079e+001
        vertex -4.130000e+001 1.423651e+001 6.896409e+001
        vertex -4.130000e+001 1.362551e+001 6.931079e+001
    endloop
endfacet
facet normal 0.000000e+000 9.851402e-001 1.717522e-001
    outer loop
        vertex -3.762000e+001 1.423651e+001 6.896409e+001
        vertex -4.130000e+001 2.511901e+001 6.544000e+000
        vertex -4.130000e+001 1.423651e+001 6.896409e+001
    endloop
endfacet
facet normal 0.000000e+000 9.851402e-001 1.717522e-001
    outer loop
        vertex -3.762000e+001 1.423651e+001 6.896409e+001
        vertex -3.762000e+001 2.511901e+001 6.544000e+000
        vertex -4.130000e+001 2.511901e+001 6.544000e+000
    endloop
endfacet
facet normal -1.000000e+000 0.000000e+000 0.000000e+000
    outer loop
        vertex -4.130000e+001 -2.258286e+001 6.544000e+000
        vertex -4.130000e+001 1.423651e+001 6.896409e+001
        vertex -4.130000e+001 2.511901e+001 6.544000e+000
    endloop
endfacet
facet normal -1.000000e+000 0.000000e+000 0.000000e+000
    outer loop
        vertex -4.130000e+001 -2.258286e+001 6.544000e+000
        vertex -4.130000e+001 1.362551e+001 6.931079e+001
        vertex -4.130000e+001 1.423651e+001 6.896409e+001
    endloop
endfacet
facet normal 1.000000e+000 0.000000e+000 0.000000e+000
    outer loop
        vertex -3.762000e+001 -2.258286e+001 6.544000e+000
        vertex -3.762000e+001 1.423651e+001 6.896409e+001
        vertex -3.762000e+001 1.362551e+001 6.931079e+001
    endloop
endfacet
facet normal 1.000000e+000 0.000000e+000 0.000000e+000
    outer loop
        vertex -3.762000e+001 -2.258286e+001 6.544000e+000
        vertex -3.762000e+001 2.511901e+001 6.544000e+000
        vertex -3.762000e+001 1.423651e+001 6.896409e+001
    endloop
endfacet
facet normal 1.000000e+000 -0.000000e+000 0.000000e+000
    outer loop
        vertex -3.762000e+001 -1.999000e+001 6.544000e+000
        vertex -3.762000e+001 2.188901e+001 6.542000e+000
        vertex -3.762000e+001 2.511901e+001 6.544000e+000
    endloop
endfacet
facet normal 0.000000e+000 0.000000e+000 0.000000e+000
    outer loop
        vertex -3.762000e+001 -2.258286e+001 6.544000e+000
        vertex -3.762000e+001 -1.999000e+001 6.544000e+000
        vertex -3.762000e+001 2.511901e+001 6.544000e+000
    endloop
endfacet
facet normal 1.000000e+000 0.000000e+000 0.000000e+000
    outer loop
        vertex -3.762000e+001 -1.999000e+001 2.100000e+000
        vertex -3.762000e+001 2.188901e+001 2.100000e+000
        vertex -3.762000e+001 2.188901e+001 6.542000e+000
    endloop
endfacet
facet normal 1.000000e+000 0.000000e+000 0.000000e+000
    outer loop
        vertex -3.762000e+001 -1.999000e+001 2.100000e+000
        vertex -3.762000e+001 2.188901e+001 6.542000e+000
        vertex -3.762000e+001 -1.999000e+001 6.544000e+000
    endloop
endfacet
facet normal -1.000000e+000 0.000000e+000 0.000000e+000
    outer loop
        vertex -3.762000e+001 1.142101e+001 6.517758e+001
        vertex -3.762000e+001 1.423651e+001 6.896409e+001
        vertex -3.762000e+001 2.511901e+001 6.544000e+000
    endloop
endfacet
facet normal -1.000000e+000 0.000000e+000 0.000000e+000
    outer loop
        vertex -3.762000e+001 1.142101e+001 6.517758e+001
        vertex -3.762000e+001 2.511901e+001 6.544000e+000
        vertex -3.762000e+001 2.188901e+001 6.542000e+000
    endloop
endfacet
facet normal 1.000000e+000 0.000000e+000 0.000000e+000
    outer loop
        vertex -3.461500e+001 1.142101e+001 6.517758e+001
        vertex -3.461500e+001 1.423651e+001 6.896409e+001
        vertex -3.461500e+001 1.298651e+001 6.814194e+001
    endloop
endfacet
facet normal 1.000000e+000 0.000000e+000 0.000000e+000
    outer loop
        vertex -3.461500e+001 1.298651e+001 6.814194e+001
        vertex -3.461500e+001 1.423651e+001 6.896409e+001
        vertex -3.461500e+001 1.362551e+001 6.931079e+001
    endloop
endfacet
facet normal -1.000000e+000 0.000000e+000 0.000000e+000
    outer loop
        vertex -3.762000e+001 1.298651e+001 6.814194e+001
        vertex -3.762000e+001 1.362551e+001 6.931079e+001
        vertex -3.762000e+001 1.423651e+001 6.896409e+001
    endloop
endfacet
facet normal -1.000000e+000 0.000000e+000 0.000000e+000
    outer loop
        vertex -3.762000e+001 1.142101e+001 6.517758e+001
        vertex -3.762000e+001 1.298651e+001 6.814194e+001
        vertex -3.762000e+001 1.423651e+001 6.896409e+001
    endloop
endfacet
facet normal -1.000000e+000 0.000000e+000 0.000000e+000
    outer loop
        vertex -3.762000e+001 1.076701e+001 6.803158e+001
        vertex -3.762000e+001 1.134251e+001 6.906994e+001
        vertex -3.762000e+001 1.298651e+001 6.814194e+001
    endloop
endfacet
facet normal -1.000000e+000 0.000000e+000 0.000000e+000
    outer loop
        vertex -3.762000e+001 1.076701e+001 6.803158e+001
        vertex -3.762000e+001 1.298651e+001 6.814194e+001
        vertex -3.762000e+001 1.142101e+001 6.517758e+001
    endloop
endfacet
facet normal 1.000000e+000 0.000000e+000 0.000000e+000
    outer loop
        vertex -3.461500e+001 1.142101e+001 6.517758e+001
        vertex -3.461500e+001 2.188901e+001 6.542000e+000
        vertex -3.461500e+001 2.511901e+001 6.542000e+000
    endloop
endfacet
facet normal 1.000000e+000 -0.000000e+000 0.000000e+000
    outer loop
        vertex -3.461500e+001 1.142101e+001 6.517758e+001
        vertex -3.461500e+001 2.511901e+001 6.542000e+000
        vertex -3.461500e+001 1.423651e+001 6.896409e+001
    endloop
endfacet
facet normal 1.000000e+000 -0.000000e+000 0.000000e+000
    outer loop
        vertex -3.461500e+001 1.076701e+001 6.803158e+001
        vertex -3.461500e+001 1.142101e+001 6.517758e+001
        vertex -3.461500e+001 1.298651e+001 6.814194e+001
    endloop
endfacet
facet normal 1.000000e+000 0.000000e+000 0.000000e+000
    outer loop
        vertex -3.461500e+001 1.076701e+001 6.803158e+001
        vertex -3.461500e+001 1.298651e+001 6.814194e+001
        vertex -3.461500e+001 1.134251e+001 6.906994e+001
    endloop
endfacet
facet normal 1.143263e-004 9.851411e-001 1.717469e-001
    outer loop
        vertex -3.461500e+001 1.423651e+001 6.896409e+001
        vertex -3.461500e+001 2.511901e+001 6.542000e+000
        vertex -3.762000e+001 2.511901e+001 6.544000e+000
    endloop
endfacet
facet normal 0.000000e+000 9.851402e-001 1.717522e-001
    outer loop
        vertex -3.461500e+001 1.423651e+001 6.896409e+001
        vertex -3.762000e+001 2.511901e+001 6.544000e+000
        vertex -3.762000e+001 1.423651e+001 6.896409e+001
    endloop
endfacet
facet normal -0.000000e+000 -9.844353e-001 -1.757477e-001
    outer loop
        vertex -3.461500e+001 1.142101e+001 6.517758e+001
        vertex -3.762000e+001 1.142101e+001 6.517758e+001
        vertex -3.461500e+001 2.188901e+001 6.542000e+000
    endloop
endfacet
facet normal 0.000000e+000 -9.844353e-001 -1.757477e-001
    outer loop
        vertex -3.762000e+001 1.142101e+001 6.517758e+001
        vertex -3.762000e+001 2.188901e+001 6.542000e+000
        vertex -3.461500e+001 2.188901e+001 6.542000e+000
    endloop
endfacet
facet normal 0.000000e+000 4.935175e-001 8.697359e-001
    outer loop
        vertex -3.461500e+001 1.362551e+001 6.931079e+001
        vertex -3.461500e+001 1.423651e+001 6.896409e+001
        vertex -3.762000e+001 1.362551e+001 6.931079e+001
    endloop
endfacet
facet normal 0.000000e+000 4.935175e-001 8.697359e-001
    outer loop
        vertex -3.762000e+001 1.362551e+001 6.931079e+001
        vertex -3.461500e+001 1.423651e+001 6.896409e+001
        vertex -3.762000e+001 1.423651e+001 6.896409e+001
    endloop
endfacet
facet normal 0.000000e+000 -8.746455e-001 4.847631e-001
    outer loop
        vertex -3.461500e+001 1.076701e+001 6.803158e+001
        vertex -3.461500e+001 1.134251e+001 6.906994e+001
        vertex -3.762000e+001 1.134251e+001 6.906994e+001
    endloop
endfacet
facet normal 0.000000e+000 -8.746455e-001 4.847631e-001
    outer loop
        vertex -3.461500e+001 1.076701e+001 6.803158e+001
        vertex -3.762000e+001 1.134251e+001 6.906994e+001
        vertex -3.762000e+001 1.076701e+001 6.803158e+001
    endloop
endfacet
facet normal 0.000000e+000 -8.774403e-001 4.796859e-001
    outer loop
        vertex -3.461500e+001 1.298651e+001 6.814194e+001
        vertex -3.762000e+001 1.362551e+001 6.931079e+001
        vertex -3.762000e+001 1.298651e+001 6.814194e+001
    endloop
endfacet
facet normal 0.000000e+000 -8.774403e-001 4.796859e-001
    outer loop
        vertex -3.461500e+001 1.298651e+001 6.814194e+001
        vertex -3.461500e+001 1.362551e+001 6.931079e+001
        vertex -3.762000e+001 1.362551e+001 6.931079e+001
    endloop
endfacet
facet normal -0.000000e+000 -9.747354e-001 -2.233627e-001
    outer loop
        vertex -3.461500e+001 1.076701e+001 6.803158e+001
        vertex -3.762000e+001 1.076701e+001 6.803158e+001
        vertex -3.461500e+001 1.142101e+001 6.517758e+001
    endloop
endfacet
facet normal 0.000000e+000 -9.747354e-001 -2.233627e-001
    outer loop
        vertex -3.762000e+001 1.076701e+001 6.803158e+001
        vertex -3.762000e+001 1.142101e+001 6.517758e+001
        vertex -3.461500e+001 1.142101e+001 6.517758e+001
    endloop
endfacet
facet normal 0.000000e+000 4.915688e-001 8.708388e-001
    outer loop
        vertex -3.461500e+001 1.134251e+001 6.906994e+001
        vertex -3.461500e+001 1.298651e+001 6.814194e+001
        vertex -3.762000e+001 1.134251e+001 6.906994e+001
    endloop
endfacet
facet normal 0.000000e+000 4.915688e-001 8.708388e-001
    outer loop
        vertex -3.762000e+001 1.134251e+001 6.906994e+001
        vertex -3.461500e+001 1.298651e+001 6.814194e+001
        vertex -3.762000e+001 1.298651e+001 6.814194e+001
    endloop
endfacet
facet normal 0.000000e+000 -0.000000e+000 1.000000e+000
    outer loop
        vertex 0.000000e+000 2.188901e+001 6.542000e+000
        vertex 0.000000e+000 2.511901e+001 6.542000e+000
        vertex -3.461500e+001 2.188901e+001 6.542000e+000
    endloop
endfacet
facet normal 0.000000e+000 0.000000e+000 1.000000e+000
    outer loop
        vertex -3.461500e+001 2.188901e+001 6.542000e+000
        vertex 0.000000e+000 2.511901e+001 6.542000e+000
        vertex -3.461500e+001 2.511901e+001 6.542000e+000
    endloop
endfacet
facet normal -0.000000e+000 -9.238922e-001 -3.826528e-001
    outer loop
        vertex -3.461500e+001 -2.258323e+001 1.546994e+000
        vertex -3.762000e+001 -2.258323e+001 1.546994e+000
        vertex -3.461500e+001 -2.230632e+001 8.784095e-001
    endloop
endfacet
facet normal 0.000000e+000 -9.238922e-001 -3.826528e-001
    outer loop
        vertex -3.762000e+001 -2.258323e+001 1.546994e+000
        vertex -3.762000e+001 -2.230632e+001 8.784095e-001
        vertex -3.461500e+001 -2.230632e+001 8.784095e-001
    endloop
endfacet
facet normal 1.018160e-007 -9.238904e-001 -3.826573e-001
    outer loop
        vertex 0.000000e+000 -2.258323e+001 1.546994e+000
        vertex -3.461500e+001 -2.230632e+001 8.784095e-001
        vertex 0.000000e+000 -2.230631e+001 8.784095e-001
    endloop
endfacet
facet normal -0.000000e+000 -9.238922e-001 -3.826528e-001
    outer loop
        vertex 0.000000e+000 -2.258323e+001 1.546994e+000
        vertex -3.461500e+001 -2.258323e+001 1.546994e+000
        vertex -3.461500e+001 -2.230632e+001 8.784095e-001
    endloop
endfacet
facet normal 0.000000e+000 -1.000000e+000 7.443116e-005
    outer loop
        vertex -3.461500e+001 -2.258323e+001 1.546994e+000
        vertex -3.461500e+001 -2.258286e+001 6.544000e+000
        vertex -3.762000e+001 -2.258286e+001 6.544000e+000
    endloop
endfacet
facet normal 0.000000e+000 -1.000000e+000 7.443116e-005
    outer loop
        vertex -3.461500e+001 -2.258323e+001 1.546994e+000
        vertex -3.762000e+001 -2.258286e+001 6.544000e+000
        vertex -3.762000e+001 -2.258323e+001 1.546994e+000
    endloop
endfacet
facet normal 0.000000e+000 -1.000000e+000 7.443116e-005
    outer loop
        vertex 0.000000e+000 -2.258323e+001 1.546994e+000
        vertex 0.000000e+000 -2.258286e+001 6.544000e+000
        vertex -3.461500e+001 -2.258323e+001 1.546994e+000
    endloop
endfacet
facet normal 0.000000e+000 -1.000000e+000 7.443116e-005
    outer loop
        vertex -3.461500e+001 -2.258323e+001 1.546994e+000
        vertex 0.000000e+000 -2.258286e+001 6.544000e+000
        vertex -3.461500e+001 -2.258286e+001 6.544000e+000
    endloop
endfacet
facet normal -0.000000e+000 -7.071203e-001 -7.070933e-001
    outer loop
        vertex -3.461500e+001 -2.230632e+001 8.784095e-001
        vertex -3.762000e+001 -2.230632e+001 8.784095e-001
        vertex -3.762000e+001 -2.170487e+001 2.769404e-001
    endloop
endfacet
facet normal -7.012650e-009 -7.071203e-001 -7.070933e-001
    outer loop
        vertex -3.461500e+001 -2.230632e+001 8.784095e-001
        vertex -3.762000e+001 -2.170487e+001 2.769404e-001
        vertex -3.461500e+001 -2.170487e+001 2.769404e-001
    endloop
endfacet
facet normal 7.792744e-008 -7.071225e-001 -7.070910e-001
    outer loop
        vertex -3.461500e+001 -2.230632e+001 8.784095e-001
        vertex 0.000000e+000 -2.170487e+001 2.769404e-001
        vertex 0.000000e+000 -2.230631e+001 8.784095e-001
    endloop
endfacet
facet normal 6.087829e-010 -7.071203e-001 -7.070933e-001
    outer loop
        vertex -3.461500e+001 -2.230632e+001 8.784095e-001
        vertex -3.461500e+001 -2.170487e+001 2.769404e-001
        vertex 0.000000e+000 -2.170487e+001 2.769404e-001
    endloop
endfacet
facet normal -9.162597e-009 -3.826950e-001 -9.238747e-001
    outer loop
        vertex -3.461500e+001 -2.170487e+001 2.769404e-001
        vertex -3.762000e+001 -2.170487e+001 2.769404e-001
        vertex -3.461500e+001 -2.103630e+001 -2.697110e-008
    endloop
endfacet
facet normal -8.292150e-009 -3.826950e-001 -9.238747e-001
    outer loop
        vertex -3.762000e+001 -2.170487e+001 2.769404e-001
        vertex -3.762000e+001 -2.103630e+001 0.000000e+000
        vertex -3.461500e+001 -2.103630e+001 -2.697110e-008
    endloop
endfacet
facet normal 7.198590e-010 -3.826950e-001 -9.238747e-001
    outer loop
        vertex 0.000000e+000 -2.170487e+001 2.769404e-001
        vertex -3.461500e+001 -2.103630e+001 -2.697110e-008
        vertex 0.000000e+000 -2.103630e+001 0.000000e+000
    endloop
endfacet
facet normal 7.954243e-010 -3.826950e-001 -9.238747e-001
    outer loop
        vertex -3.461500e+001 -2.170487e+001 2.769404e-001
        vertex -3.461500e+001 -2.103630e+001 -2.697110e-008
        vertex 0.000000e+000 -2.170487e+001 2.769404e-001
    endloop
endfacet
facet normal 0.000000e+000 1.000000e+000 0.000000e+000
    outer loop
        vertex -3.461500e+001 -1.999000e+001 2.100000e+000
        vertex -3.762000e+001 -1.999000e+001 2.100000e+000
        vertex -3.762000e+001 -1.999000e+001 6.544000e+000
    endloop
endfacet
facet normal 0.000000e+000 1.000000e+000 -0.000000e+000
    outer loop
        vertex -3.461500e+001 -1.999000e+001 2.100000e+000
        vertex -3.762000e+001 -1.999000e+001 6.544000e+000
        vertex -3.461500e+001 -1.999000e+001 6.544000e+000
    endloop
endfacet
facet normal 0.000000e+000 1.000000e+000 0.000000e+000
    outer loop
        vertex 5.142479e-007 -1.999000e+001 2.100000e+000
        vertex -3.461500e+001 -1.999000e+001 2.100000e+000
        vertex 2.251653e-007 -1.999000e+001 6.544000e+000
    endloop
endfacet
facet normal 0.000000e+000 1.000000e+000 0.000000e+000
    outer loop
        vertex -3.461500e+001 -1.999000e+001 2.100000e+000
        vertex -3.461500e+001 -1.999000e+001 6.544000e+000
        vertex 2.251653e-007 -1.999000e+001 6.544000e+000
    endloop
endfacet
facet normal 0.000000e+000 0.000000e+000 1.000000e+000
    outer loop
        vertex -3.762000e+001 -2.280786e+001 8.002000e+000
        vertex -3.461500e+001 -1.999000e+001 8.002000e+000
        vertex -3.762000e+001 -1.999000e+001 8.002000e+000
    endloop
endfacet
facet normal 0.000000e+000 -0.000000e+000 1.000000e+000
    outer loop
        vertex -3.461500e+001 -2.280786e+001 8.002000e+000
        vertex -3.461500e+001 -1.999000e+001 8.002000e+000
        vertex -3.762000e+001 -2.280786e+001 8.002000e+000
    endloop
endfacet
facet normal 0.000000e+000 -0.000000e+000 1.000000e+000
    outer loop
        vertex 0.000000e+000 -2.258286e+001 6.544000e+000
        vertex 2.251653e-007 -1.999000e+001 6.544000e+000
        vertex -3.461500e+001 -2.258286e+001 6.544000e+000
    endloop
endfacet
facet normal 0.000000e+000 0.000000e+000 1.000000e+000
    outer loop
        vertex -3.461500e+001 -2.258286e+001 6.544000e+000
        vertex 2.251653e-007 -1.999000e+001 6.544000e+000
        vertex -3.461500e+001 -1.999000e+001 6.544000e+000
    endloop
endfacet
facet normal 0.000000e+000 1.000000e+000 0.000000e+000
    outer loop
        vertex -3.762000e+001 2.511901e+001 0.000000e+000
        vertex -3.762000e+001 2.511901e+001 6.544000e+000
        vertex -3.461500e+001 2.511901e+001 6.542000e+000
    endloop
endfacet
facet normal 0.000000e+000 1.000000e+000 -0.000000e+000
    outer loop
        vertex -3.461500e+001 2.511901e+001 -2.697110e-008
        vertex -3.762000e+001 2.511901e+001 0.000000e+000
        vertex -3.461500e+001 2.511901e+001 6.542000e+000
    endloop
endfacet
facet normal 0.000000e+000 1.000000e+000 -0.000000e+000
    outer loop
        vertex 0.000000e+000 2.511901e+001 0.000000e+000
        vertex -3.461500e+001 2.511901e+001 6.542000e+000
        vertex 0.000000e+000 2.511901e+001 6.542000e+000
    endloop
endfacet
facet normal 0.000000e+000 1.000000e+000 0.000000e+000
    outer loop
        vertex -3.461500e+001 2.511901e+001 -2.697110e-008
        vertex -3.461500e+001 2.511901e+001 6.542000e+000
        vertex 0.000000e+000 2.511901e+001 0.000000e+000
    endloop
endfacet
facet normal 0.000000e+000 -1.000000e+000 0.000000e+000
    outer loop
        vertex -3.461500e+001 2.188901e+001 2.100000e+000
        vertex -3.461500e+001 2.188901e+001 6.542000e+000
        vertex -3.762000e+001 2.188901e+001 6.542000e+000
    endloop
endfacet
facet normal 0.000000e+000 -1.000000e+000 0.000000e+000
    outer loop
        vertex -3.461500e+001 2.188901e+001 2.100000e+000
        vertex -3.762000e+001 2.188901e+001 6.542000e+000
        vertex -3.762000e+001 2.188901e+001 2.100000e+000
    endloop
endfacet
facet normal 0.000000e+000 -1.000000e+000 0.000000e+000
    outer loop
        vertex -3.461500e+001 2.188901e+001 2.100000e+000
        vertex 0.000000e+000 2.188901e+001 6.542000e+000
        vertex -3.461500e+001 2.188901e+001 6.542000e+000
    endloop
endfacet
facet normal 0.000000e+000 -1.000000e+000 0.000000e+000
    outer loop
        vertex 2.890825e-007 2.188901e+001 2.100000e+000
        vertex 0.000000e+000 2.188901e+001 6.542000e+000
        vertex -3.461500e+001 2.188901e+001 2.100000e+000
    endloop
endfacet
facet normal -8.975405e-009 0.000000e+000 -1.000000e+000
    outer loop
        vertex -3.461500e+001 -2.103630e+001 -2.697110e-008
        vertex -3.762000e+001 -2.103630e+001 0.000000e+000
        vertex -3.461500e+001 2.511901e+001 -2.697110e-008
    endloop
endfacet
facet normal -8.975405e-009 0.000000e+000 -1.000000e+000
    outer loop
        vertex -3.762000e+001 -2.103630e+001 0.000000e+000
        vertex -3.762000e+001 2.511901e+001 0.000000e+000
        vertex -3.461500e+001 2.511901e+001 -2.697110e-008
    endloop
endfacet
facet normal 7.791738e-010 0.000000e+000 -1.000000e+000
    outer loop
        vertex 0.000000e+000 -2.103630e+001 0.000000e+000
        vertex -3.461500e+001 2.511901e+001 -2.697110e-008
        vertex 0.000000e+000 2.511901e+001 0.000000e+000
    endloop
endfacet
facet normal 7.791738e-010 0.000000e+000 -1.000000e+000
    outer loop
        vertex -3.461500e+001 -2.103630e+001 -2.697110e-008
        vertex -3.461500e+001 2.511901e+001 -2.697110e-008
        vertex 0.000000e+000 -2.103630e+001 0.000000e+000
    endloop
endfacet
facet normal 0.000000e+000 0.000000e+000 1.000000e+000
    outer loop
        vertex -3.762000e+001 -1.999000e+001 2.100000e+000
        vertex -3.461500e+001 2.188901e+001 2.100000e+000
        vertex -3.762000e+001 2.188901e+001 2.100000e+000
    endloop
endfacet
facet normal 0.000000e+000 -0.000000e+000 1.000000e+000
    outer loop
        vertex -3.461500e+001 -1.999000e+001 2.100000e+000
        vertex -3.461500e+001 2.188901e+001 2.100000e+000
        vertex -3.762000e+001 -1.999000e+001 2.100000e+000
    endloop
endfacet
facet normal 0.000000e+000 0.000000e+000 1.000000e+000
    outer loop
        vertex -3.461500e+001 -1.999000e+001 2.100000e+000
        vertex 2.890825e-007 2.188901e+001 2.100000e+000
        vertex -3.461500e+001 2.188901e+001 2.100000e+000
    endloop
endfacet
facet normal 0.000000e+000 0.000000e+000 1.000000e+000
    outer loop
        vertex 5.142479e-007 -1.999000e+001 2.100000e+000
        vertex 2.890825e-007 2.188901e+001 2.100000e+000
        vertex -3.461500e+001 -1.999000e+001 2.100000e+000
    endloop
endfacet
facet normal 0.000000e+000 -8.320504e-001 5.547000e-001
    outer loop
        vertex -3.461500e+001 -2.344786e+001 7.042000e+000
        vertex -3.461500e+001 -2.280786e+001 8.002000e+000
        vertex -3.762000e+001 -2.344786e+001 7.042000e+000
    endloop
endfacet
facet normal 0.000000e+000 -8.320504e-001 5.547000e-001
    outer loop
        vertex -3.762000e+001 -2.344786e+001 7.042000e+000
        vertex -3.461500e+001 -2.280786e+001 8.002000e+000
        vertex -3.762000e+001 -2.280786e+001 8.002000e+000
    endloop
endfacet
facet normal 1.000000e+000 -0.000000e+000 0.000000e+000
    outer loop
        vertex -3.461500e+001 -2.280786e+001 8.002000e+000
        vertex -3.461500e+001 -2.258286e+001 6.544000e+000
        vertex -3.461500e+001 -1.999000e+001 8.002000e+000
    endloop
endfacet
facet normal 1.000000e+000 0.000000e+000 0.000000e+000
    outer loop
        vertex -3.461500e+001 -2.258286e+001 6.544000e+000
        vertex -3.461500e+001 -1.999000e+001 6.544000e+000
        vertex -3.461500e+001 -1.999000e+001 8.002000e+000
    endloop
endfacet
facet normal 0.000000e+000 1.000000e+000 0.000000e+000
    outer loop
        vertex -3.762000e+001 -1.999000e+001 6.544000e+000
        vertex -3.762000e+001 -1.999000e+001 8.002000e+000
        vertex -3.461500e+001 -1.999000e+001 8.002000e+000
    endloop
endfacet
facet normal 0.000000e+000 1.000000e+000 -0.000000e+000
    outer loop
        vertex -3.461500e+001 -1.999000e+001 6.544000e+000
        vertex -3.762000e+001 -1.999000e+001 6.544000e+000
        vertex -3.461500e+001 -1.999000e+001 8.002000e+000
    endloop
endfacet
facet normal -1.000000e+000 0.000000e+000 0.000000e+000
    outer loop
        vertex -3.762000e+001 -2.280786e+001 8.002000e+000
        vertex -3.762000e+001 -1.999000e+001 8.002000e+000
        vertex -3.762000e+001 -2.258286e+001 6.544000e+000
    endloop
endfacet
facet normal -1.000000e+000 0.000000e+000 0.000000e+000
    outer loop
        vertex -3.762000e+001 -2.258286e+001 6.544000e+000
        vertex -3.762000e+001 -1.999000e+001 8.002000e+000
        vertex -3.762000e+001 -1.999000e+001 6.544000e+000
    endloop
endfacet
facet normal -1.000000e+000 0.000000e+000 0.000000e+000
    outer loop
        vertex -3.762000e+001 -2.344786e+001 7.042000e+000
        vertex -3.762000e+001 -2.280786e+001 8.002000e+000
        vertex -3.762000e+001 -2.258286e+001 6.544000e+000
    endloop
endfacet
facet normal 0.000000e+000 -4.989418e-001 -8.666354e-001
    outer loop
        vertex -3.461500e+001 -2.344786e+001 7.042000e+000
        vertex -3.762000e+001 -2.258286e+001 6.544000e+000
        vertex -3.461500e+001 -2.258286e+001 6.544000e+000
    endloop
endfacet
facet normal -0.000000e+000 -4.989418e-001 -8.666354e-001
    outer loop
        vertex -3.461500e+001 -2.344786e+001 7.042000e+000
        vertex -3.762000e+001 -2.344786e+001 7.042000e+000
        vertex -3.762000e+001 -2.258286e+001 6.544000e+000
    endloop
endfacet
facet normal 1.000000e+000 -0.000000e+000 0.000000e+000
    outer loop
        vertex -3.461500e+001 -2.344786e+001 7.042000e+000
        vertex -3.461500e+001 -2.258286e+001 6.544000e+000
        vertex -3.461500e+001 -2.280786e+001 8.002000e+000
    endloop
endfacet
endsolid NS Panel_mount_base_v016.stl
